<?xml version="1.0" standalone="no"?>
<!DOCTYPE svg PUBLIC "-//W3C//DTD SVG 20010904//EN"
 "http://www.w3.org/TR/2001/REC-SVG-20010904/DTD/svg10.dtd">
<svg version="1.0" xmlns="http://www.w3.org/2000/svg"
 width="320.000000pt" height="320.000000pt" viewBox="0 0 320.000000 320.000000"
 preserveAspectRatio="xMidYMid meet">

<g transform="translate(0.000000,320.000000) scale(0.100000,-0.100000)"
fill="#000000" stroke="none">
<path d="M906 2990 c-63 -16 -153 -70 -197 -117 -22 -24 -55 -74 -72 -111 -29
-61 -32 -76 -32 -162 0 -83 4 -103 28 -154 33 -71 82 -133 131 -167 l36 -24 0
-655 0 -655 -36 -24 c-49 -34 -98 -96 -131 -167 -24 -51 -28 -71 -28 -155 0
-90 2 -99 37 -171 45 -91 103 -147 196 -191 61 -29 76 -32 162 -32 86 0 101 3
162 32 93 44 151 100 196 191 35 72 37 81 37 171 0 83 -4 104 -27 154 -15 32
-37 70 -48 84 -26 33 -25 37 8 68 66 64 129 83 301 96 210 14 327 51 457 144
168 120 293 372 311 626 6 84 6 86 40 109 48 33 98 96 130 166 24 51 28 71 28
155 0 90 -2 99 -37 171 -45 91 -103 147 -196 191 -61 29 -76 32 -163 32 -90 0
-99 -2 -171 -37 -91 -45 -147 -103 -191 -196 -29 -61 -32 -76 -32 -162 0 -83
4 -103 28 -154 33 -71 82 -133 131 -167 32 -22 36 -29 36 -69 0 -58 -24 -160
-50 -211 -42 -81 -128 -155 -212 -180 -18 -6 -95 -14 -170 -20 -135 -9 -270
-39 -339 -74 l-29 -16 0 473 0 473 36 24 c49 34 98 96 131 167 24 51 28 71 28
155 0 90 -2 99 -37 171 -68 136 -188 217 -336 224 -42 2 -94 -1 -116 -6z m204
-224 c59 -39 85 -89 85 -166 0 -78 -26 -127 -88 -168 -56 -37 -153 -39 -210
-3 -76 47 -111 140 -88 229 14 51 75 117 123 131 53 16 135 6 178 -23z m1200
-400 c59 -39 85 -89 85 -166 0 -78 -26 -127 -88 -168 -56 -37 -153 -39 -210
-3 -76 47 -111 140 -88 229 14 51 75 117 123 131 53 16 135 6 178 -23z m-1200
-1600 c59 -39 85 -89 85 -166 0 -78 -26 -127 -88 -168 -56 -37 -153 -39 -210
-3 -76 47 -111 140 -88 229 14 51 75 117 123 131 53 16 135 6 178 -23z"/>
</g>
</svg>
