<?xml version="1.0" standalone="no"?>
<!DOCTYPE svg PUBLIC "-//W3C//DTD SVG 20010904//EN"
 "http://www.w3.org/TR/2001/REC-SVG-20010904/DTD/svg10.dtd">
<svg version="1.0" xmlns="http://www.w3.org/2000/svg"
 width="512.000000pt" height="512.000000pt" viewBox="0 0 512.000000 512.000000"
 preserveAspectRatio="xMidYMid meet">

<g transform="translate(0.000000,512.000000) scale(0.100000,-0.100000)"
fill="#000000" stroke="none">
<path d="M3412 5107 c-94 -35 -147 -118 -140 -222 5 -78 38 -132 105 -172 l48
-28 473 -5 472 -5 -801 -800 c-548 -547 -807 -813 -820 -840 -37 -79 -16 -187
47 -247 60 -56 156 -74 232 -43 26 11 277 256 845 823 l807 807 0 -453 c0
-293 4 -468 11 -496 29 -117 154 -186 272 -152 64 19 129 82 146 142 7 26 11
274 11 745 0 779 1 767 -63 851 -20 27 -55 54 -92 73 l-59 30 -730 2 c-548 1
-739 -1 -764 -10z"/>
<path d="M2085 2371 c-27 -13 -293 -272 -840 -820 l-800 -801 -5 472 -5 473
-28 48 c-39 66 -93 100 -168 105 -110 8 -201 -52 -228 -151 -9 -31 -11 -237
-9 -763 l3 -720 30 -59 c19 -37 46 -72 73 -92 84 -64 72 -63 851 -63 480 0
719 4 746 11 61 17 130 93 145 161 25 113 -43 226 -155 257 -26 7 -197 11
-495 11 l-455 0 807 808 c567 567 812 818 823 844 32 79 10 182 -51 240 -62
58 -163 75 -239 39z"/>
</g>
</svg>
