<?xml version="1.0" standalone="no"?>
<!DOCTYPE svg PUBLIC "-//W3C//DTD SVG 20010904//EN"
 "http://www.w3.org/TR/2001/REC-SVG-20010904/DTD/svg10.dtd">
<svg version="1.0" xmlns="http://www.w3.org/2000/svg"
 width="512.000000pt" height="512.000000pt" viewBox="0 0 512.000000 512.000000"
 preserveAspectRatio="xMidYMid meet">

<g transform="translate(0.000000,512.000000) scale(0.100000,-0.100000)"
fill="#000000" stroke="none">
<path d="M2340 4789 c-929 -95 -1712 -781 -1946 -1705 -55 -217 -68 -331 -68
-579 -1 -234 12 -352 59 -550 171 -725 700 -1336 1385 -1600 97 -38 136 -43
179 -21 46 24 51 49 51 278 l0 211 -37 -7 c-93 -16 -259 -18 -329 -3 -163 35
-300 137 -364 273 -18 38 -47 101 -66 139 -44 93 -114 178 -198 241 -38 28
-76 63 -85 77 -14 25 -14 28 2 44 31 31 138 24 217 -13 90 -43 145 -96 225
-214 99 -148 177 -205 318 -231 78 -15 179 -3 269 31 l55 21 12 57 c14 73 64
178 103 219 l30 31 -48 7 c-567 79 -852 328 -950 830 -13 66 -18 139 -18 275
0 159 3 196 22 265 35 125 109 269 178 345 l22 25 -19 75 c-34 133 -25 322 22
477 l21 66 81 -6 c127 -8 272 -67 461 -185 78 -49 79 -49 121 -36 91 27 296
55 445 61 177 6 374 -12 532 -51 l96 -23 69 45 c96 62 275 149 358 172 38 11
97 20 131 20 l61 0 22 -73 c47 -158 54 -317 21 -454 l-20 -83 49 -67 c104
-143 162 -305 175 -488 8 -100 -6 -287 -30 -404 -87 -431 -365 -685 -839 -766
-55 -9 -110 -19 -122 -21 -22 -4 -22 -5 12 -50 42 -55 71 -118 93 -204 15 -56
17 -115 14 -445 -3 -437 -3 -438 76 -465 41 -14 47 -13 125 13 45 16 141 57
212 92 670 326 1134 968 1252 1735 24 160 24 510 0 669 -98 627 -416 1161
-912 1531 -427 318 -991 473 -1525 419z"/>
</g>
</svg>
