<?xml version="1.0" standalone="no"?>
<!DOCTYPE svg PUBLIC "-//W3C//DTD SVG 20010904//EN"
 "http://www.w3.org/TR/2001/REC-SVG-20010904/DTD/svg10.dtd">
<svg version="1.0" xmlns="http://www.w3.org/2000/svg"
 width="512.000000pt" height="512.000000pt" viewBox="0 0 512.000000 512.000000"
 preserveAspectRatio="xMidYMid meet">

<g transform="translate(0.000000,512.000000) scale(0.100000,-0.100000)"
fill="#000000" stroke="none">
<path d="M740 4464 c-144 -39 -247 -145 -285 -290 -14 -54 -15 -241 -13 -1660
l3 -1599 23 -55 c48 -117 146 -208 259 -241 72 -21 3634 -21 3706 0 113 33
211 124 259 241 l23 55 0 1080 c0 1014 -1 1083 -18 1132 -43 122 -160 231
-276 255 l-58 11 -6 66 c-14 166 -106 291 -261 355 -49 20 -71 21 -626 26
-635 6 -600 2 -669 71 -47 47 -72 104 -83 187 -21 176 -106 292 -258 354 l-55
23 -805 2 c-685 2 -813 0 -860 -13z m1686 -166 c41 -22 90 -72 110 -110 8 -16
19 -67 25 -114 21 -186 103 -302 259 -366 54 -23 61 -23 635 -28 641 -6 605
-2 674 -71 45 -44 62 -83 68 -150 l6 -59 -1404 -2 c-1399 -3 -1404 -3 -1455
-24 -114 -47 -190 -122 -236 -234 l-23 -55 -5 -1080 c-6 -1198 0 -1103 -71
-1174 -52 -52 -86 -66 -169 -66 -83 0 -117 14 -169 66 -72 71 -66 -82 -69
1674 -2 869 0 1599 3 1622 7 47 46 110 89 144 63 49 47 49 901 46 735 -2 803
-3 831 -19z m2000 -1080 c41 -22 90 -71 112 -112 16 -29 17 -108 17 -1106 0
-998 -1 -1077 -17 -1106 -22 -41 -71 -90 -112 -112 -29 -16 -140 -17 -1648
-20 l-1617 -2 26 46 c53 95 53 79 53 1194 0 647 4 1048 10 1070 19 67 80 131
149 156 29 11 317 13 1516 11 1379 -2 1482 -3 1511 -19z"/>
</g>
</svg>
