<?xml version="1.0" standalone="no"?>
<!DOCTYPE svg PUBLIC "-//W3C//DTD SVG 20010904//EN"
 "http://www.w3.org/TR/2001/REC-SVG-20010904/DTD/svg10.dtd">
<svg version="1.0" xmlns="http://www.w3.org/2000/svg"
 width="512.000000pt" height="512.000000pt" viewBox="0 0 512.000000 512.000000"
 preserveAspectRatio="xMidYMid meet">

<g transform="translate(0.000000,512.000000) scale(0.100000,-0.100000)"
fill="#000000" stroke="none">
<path d="M661 4785 c-177 -39 -347 -171 -429 -335 -76 -152 -72 -31 -72 -1890
0 -1859 -4 -1738 72 -1890 73 -145 203 -257 370 -318 l73 -27 1852 -3 c2072
-3 1929 -7 2082 70 146 73 259 204 319 370 l27 73 0 1720 0 1720 -22 70 c-52
163 -175 309 -323 383 -153 77 -13 72 -2055 71 -1522 0 -1841 -3 -1894 -14z
m348 -632 c32 -8 865 -674 888 -710 24 -37 24 -129 0 -166 -15 -23 -738 -609
-848 -688 -45 -32 -134 -34 -175 -3 -44 32 -66 68 -71 116 -10 87 -4 93 359
383 183 147 333 271 333 275 0 4 -150 128 -333 275 -253 202 -337 275 -348
300 -53 128 60 254 195 218z m1637 -1299 c53 -39 69 -71 69 -134 0 -63 -16
-95 -69 -134 -26 -20 -42 -21 -384 -24 -234 -2 -370 1 -394 8 -101 29 -140
168 -71 251 50 58 53 59 455 56 353 -2 368 -3 394 -23z"/>
</g>
</svg>
