<?xml version="1.0" standalone="no"?>
<!DOCTYPE svg PUBLIC "-//W3C//DTD SVG 20010904//EN"
        "http://www.w3.org/TR/2001/REC-SVG-20010904/DTD/svg10.dtd">
<svg version="1.0" xmlns="http://www.w3.org/2000/svg"
     width="512.000000pt" height="512.000000pt" viewBox="0 0 512.000000 512.000000"
     preserveAspectRatio="xMidYMid meet">

    <g transform="translate(0.000000,512.000000) scale(0.100000,-0.100000)"
       fill="#000000" stroke="none">
        <path d="M1145 3829 c-178 -19 -380 -90 -541 -190 -106 -66 -267 -217 -347
-324 -71 -95 -168 -291 -197 -395 -66 -241 -66 -479 0 -720 29 -104 126 -300
197 -395 80 -107 241 -258 347 -324 491 -306 1137 -249 1546 135 87 82 302
324 298 335 -5 14 -409 479 -417 479 -3 0 -74 -78 -157 -173 -115 -132 -168
-185 -221 -220 -324 -215 -762 -111 -937 223 -186 353 -14 777 365 905 71 23
101 28 194 28 161 1 272 -33 398 -124 41 -29 222 -231 634 -707 317 -367 609
-698 648 -736 117 -113 293 -222 453 -280 194 -69 474 -92 662 -53 532 111
915 491 1027 1017 24 117 24 372 0 487 -106 498 -465 877 -945 999 -417 106
-870 -4 -1175 -286 -90 -84 -309 -329 -305 -341 5 -14 409 -479 417 -479 3 0
74 78 157 173 115 132 168 185 221 220 379 252 882 65 993 -369 82 -321 -105
-657 -423 -760 -68 -22 -101 -27 -192 -27 -162 -1 -281 37 -407 130 -30 21
-283 306 -626 701 -317 366 -603 691 -636 723 -211 201 -462 317 -754 348
-114 12 -160 12 -277 0z"/>
    </g>
</svg>
