<svg xmlns="http://www.w3.org/2000/svg"  viewBox="0 0 48 48" width="240px" height="240px"><linearGradient id="yzS0ZQo9s3lO94AGIvPRDa" x1="5.263" x2="14.066" y1="26.905" y2="26.905" gradientUnits="userSpaceOnUse"><stop offset="0" stop-color="#f09701"/><stop offset="1" stop-color="#e36001"/></linearGradient><polygon fill="url(#yzS0ZQo9s3lO94AGIvPRDa)" points="23.06,24 14.12,35.19 11,32.73 10.5,32.34 10.34,32.21 10,31.94 4.44,27.56 9.25,18.62 10,18.91 10.5,19.11 11,19.3 18.21,22.11"/><linearGradient id="yzS0ZQo9s3lO94AGIvPRDb" x1="42.278" x2="28.135" y1="45.336" y2="20.84" gradientUnits="userSpaceOnUse"><stop offset="0" stop-color="#2aa4f4"/><stop offset="1" stop-color="#007ad9"/></linearGradient><path fill="url(#yzS0ZQo9s3lO94AGIvPRDb)" d="M44,14.688l-0.75,23.125L27.875,44l-9.25-6	l13.5-14L44,14.688z"/><linearGradient id="yzS0ZQo9s3lO94AGIvPRDc" x1="38.47" x2="29.705" y1="7.051" y2="22.233" gradientUnits="userSpaceOnUse"><stop offset=".002" stop-color="#427fdb"/><stop offset=".397" stop-color="#2668cb"/><stop offset=".763" stop-color="#1358bf"/><stop offset="1" stop-color="#0c52bb"/></linearGradient><polygon fill="url(#yzS0ZQo9s3lO94AGIvPRDc)" points="44,14.69 37,22.94 36.5,23.53 36,24.12 31.81,29.06 29.16,20.46 26.25,11 26.67,10.5 26.68,10.48 27.08,10 31.56,4.62"/><linearGradient id="yzS0ZQo9s3lO94AGIvPRDd" x1="17.232" x2="7.318" y1="30.969" y2="40.688" gradientUnits="userSpaceOnUse"><stop offset="0" stop-color="#ac4ad5"/><stop offset="1" stop-color="#ae4cd5"/></linearGradient><polygon fill="url(#yzS0ZQo9s3lO94AGIvPRDd)" points="34.69,19.62 24.02,36 23.7,36.5 23.37,37 23.25,37.19 7.25,43 9.81,34 10,33.36 10.34,32.21 10.5,31.68 11,30 13.12,22.88 18.21,22.11"/><linearGradient id="yzS0ZQo9s3lO94AGIvPRDe" x1="13.39" x2="19.955" y1="3.355" y2="21.39" gradientUnits="userSpaceOnUse"><stop offset=".002" stop-color="#f44f78"/><stop offset=".397" stop-color="#e4305d"/><stop offset=".763" stop-color="#d81b4a"/><stop offset="1" stop-color="#d41343"/></linearGradient><polygon fill="url(#yzS0ZQo9s3lO94AGIvPRDe)" points="34.69,19.62 29.16,20.46 13.12,22.88 11,22.17 10.5,22 10,21.83 4,19.81 9.81,4 22.31,5.5 26.26,10 26.68,10.48 26.69,10.5 27.13,11"/><path fill="#343434" d="M11,11h25v25H11V11z"/><path fill="#fff" d="M14,31.5h9V33h-9V31.5z M20.5,15.875V14h-5v1.875H17v6.5h-1.5v1.875h5v-1.875h-1.341v-6.5H20.5z M25.375,24.5c-1.875,0-2.871-1.098-3.25-1.548l1.411-1.605c0.255,0.282,0.964,1.028,1.839,1.028c1.125,0,1.375-1.125,1.375-1.75V14	H29v6.625c0,0.624,0,1.625-0.75,2.625C27.725,23.95,26.5,24.5,25.375,24.5z"/><path d="M27.08,10l-0.4,0.48L26.26,10H10v21.94l0.34,0.27L10,33.36V37h27V10H27.08z M36,36H11V11h25V36z" opacity=".05"/><path d="M10.5,10.5v26h26v-26H10.5z M36,36H11V11h25V36z" opacity=".07"/></svg>